<svg xmlns="http://www.w3.org/2000/svg" width="80" height="80" viewBox="0 0 100 100">
  <rect x="5" y="5" width="90" height="90" rx="20" ry="20" fill="#020617"/>
  <circle cx="50" cy="50" r="26" fill="#111827"/>
  <path d="M50 24 A26 26 0 0 1 74 44 L50 50 Z" fill="#22c55e"/>
  <path d="M74 44 A26 26 0 0 1 64 72 L50 50 Z" fill="#0ea5e9"/>
  <path d="M64 72 A26 26 0 0 1 36 72 L50 50 Z" fill="#f97316"/>
  <path d="M36 72 A26 26 0 0 1 26 44 L50 50 Z" fill="#eab308"/>
  <path d="M26 44 A26 26 0 0 1 50 24 L50 50 Z" fill="#a855f7"/>
  <circle cx="50" cy="50" r="6" fill="#e5e7eb"/>
</svg>
